<svg id="wave" xmlns="http://www.w3.org/2000/svg" viewBox="0 0 1440 320"
                    style="position:absolute;bottom:-10%;left:-70vw;width:170vw;">
                    <path stroke="white" stroke-width="1" fill="#000000" fill-opacity="1"
                        d="M0,128L48,122.7C96,117,192,107,288,133.3C384,160,480,224,576,250.7C672,277,768,267,864,250.7C960,235,1056,213,1152,208C1248,203,1344,213,1392,218.7L1440,224L1440,320L1392,320C1344,320,1248,320,1152,320C1056,320,960,320,864,320C768,320,672,320,576,320C480,320,384,320,288,320C192,320,96,320,48,320L0,320Z">
                    </path>
                </svg> 